<svg width="18" height="23" viewBox="0 0 18 23" version="1.1" xmlns="http://www.w3.org/2000/svg" xmlns:xlink="http://www.w3.org/1999/xlink" xmlns:figma="http://www.figma.com/figma/ns">
<title>Down Vote this motha!</title>
<desc>This is an icon of a downward facing arrow.</desc>
<g id="Canvas" transform="translate(-1592 -307)" figma:type="canvas">
<rect x="1592" y="307" width="18" height="23" fill="#E5E5E5"/>
<mask id="mask0_alpha" mask-type="alpha">
<path d="M 254 -191L 1773 -191L 1773 961L 254 961L 254 -191Z" fill="#FFFFFF"/>
</mask>
<g id="Desktop HD" mask="url(#mask0_alpha)" figma:type="frame">
<path d="M 254 -191L 1773 -191L 1773 961L 254 961L 254 -191Z" fill="#FFFFFF"/>
<g id="Banner" figma:type="rounded-rectangle">
<use xlink:href="#path0_fill" transform="translate(254 -191)" fill="url(#paint0_radial)"/>
</g>
<g id="Voting Table" figma:type="frame">
<g id="Voting Platform" filter="url(#filter0_d)" figma:type="rounded-rectangle">
<use xlink:href="#path1_fill" transform="translate(376 256)" fill="#FFFFFF"/>
</g>
<mask id="mask1_alpha" mask-type="alpha">
<path d="M 376 254.5L 1683 254.5L 1683 381.5L 376 381.5L 376 254.5Z" fill="#FFFFFF"/>
</mask>
<g id="Table row" mask="url(#mask1_alpha)" figma:type="instance">
<g id="Down Vote" figma:type="frame">
<g id="Ellipse" figma:type="ellipse">
<use xlink:href="#path2_fill" transform="matrix(-1 1.22465e-16 -1.22465e-16 -1 1625 341.5)" fill="#08D4F3"/>
</g>
<g id="Vector 3" figma:type="vector">
<use xlink:href="#path3_fill" transform="matrix(-1 1.22465e-16 -1.22465e-16 -1 1609.5 329.5)" fill="#FFFFFF" fill-opacity="0.8"/>
</g>
</g>
</g>
</g>
</g>
</g>
<defs>
<filter id="filter0_d" filterUnits="userSpaceOnUse" x="311" y="195" width="1406" height="766" color-interpolation-filters="sRGB">
<feFlood flood-opacity="0" result="BackgroundImageFix"/>
<desc>type="dropShadow" x="0" y="4" size="65" spread="0" color="0.307018,0.362456,1,0.3" blend="normal"</desc>
<feColorMatrix in="SourceAlpha" type="matrix" values="0 0 0 0 0 0 0 0 0 0 0 0 0 0 0 0 0 0 255 0"/>
<feOffset dx="0" dy="4"/>
<feGaussianBlur stdDeviation="32.5"/>
<feColorMatrix type="matrix" values="0 0 0 0 0.307018 0 0 0 0 0.362456 0 0 0 0 1 0 0 0 0.3 0"/>
<feBlend mode="normal" in2="BackgroundImageFix" result="effect1_dropShadow"/>
<feBlend mode="normal" in="SourceGraphic" in2="effect1_dropShadow" result="shape"/>
</filter>
<radialGradient id="paint0_radial" cx="0.5" cy="0.5" r="0.5" gradientUnits="userSpaceOnUse" gradientTransform="matrix(-2923.67 1136.12 -3006.57 -807.959 4443.29 -164.083)">
<stop offset="0" stop-color="#07D6F2"/>
<stop offset="1" stop-color="#9654FB"/>
</radialGradient>
<path id="path0_fill" d="M 0 0L 1519 0L 1519 574L 0 574L 0 0Z"/>
<path id="path1_fill" d="M 0 10C 0 4.47715 4.47715 0 10 0L 1266 0C 1271.52 0 1276 4.47715 1276 10L 1276 708C 1276 713.523 1271.52 718 1266 718L 10 718C 4.47715 718 0 713.523 0 708L 0 10Z"/>
<path id="path2_fill" d="M 48 24C 48 37.2548 37.2548 48 24 48C 10.7452 48 0 37.2548 0 24C 0 10.7452 10.7452 0 24 0C 37.2548 0 48 10.7452 48 24Z"/>
<path id="path3_fill" d="M 8.5 0L 0 10.5L 5 10.5L 5 22.5L 12 22.5L 12 10.5L 17 10.5L 8.5 0Z"/>
</defs>
</svg>
